# xmcd CD database file
#
# Track frame offsets:
#	150
#	11055
#	19942
#	38236
#	53927
#	66539
#	83726
#	97762
#	108511
#	124355
#	139611
#	155562
#
# Disc length: 2598 seconds
#
# Revision: 1
# Processed by: cddbd v1.5.1PL0 Copyright (c) Steve Scherf et al.
# Submitted via: CDex 1.40Release
#
DISCID=a10a240c
DTITLE=Jason Allen - Wouldn't It Be Nice
DYEAR=2004
DGENRE=Country
TTITLE0=Make up Your Mind
TTITLE1=Costin' To Stay In Austin
TTITLE2=John Boat Blues
TTITLE3=Must Have Been Meant To Be
TTITLE4=Chicken Pluckin'
TTITLE5=My Favorite Song
TTITLE6=Hold'em Up
TTITLE7=Your Heart Turned Left (and I Was On The Right)
TTITLE8=Everything But The Words
TTITLE9=Your Love
TTITLE10=Devil's Destiny
TTITLE11=Wouldn't It Be Nice
EXTD=YEAR: 2004 ID3G: 2
EXTT0=
EXTT1=
EXTT2=
EXTT3=
EXTT4=
EXTT5=
EXTT6=
EXTT7=
EXTT8=
EXTT9=
EXTT10=
EXTT11=
PLAYORDER=
